<?xml version="1.0" standalone="no"?><!DOCTYPE svg PUBLIC "-//W3C//DTD SVG 1.1//EN" "http://www.w3.org/Graphics/SVG/1.1/DTD/svg11.dtd"><svg t="1701737583107" class="icon" viewBox="0 0 1024 1024" version="1.1" xmlns="http://www.w3.org/2000/svg" p-id="19755" xmlns:xlink="http://www.w3.org/1999/xlink" width="200" height="200"><path d="M0 0h1024v1024H0V0z m342.135467 844.8c2.884267 0 5.768533-1.237333 7.8336-3.712l362.077866-407.031467c2.884267-2.884267 3.3024-7.424 1.655467-11.136a10.4192 10.4192 0 0 0-9.489067-6.186666H592.452267l17.7408-27.221334L737.621333 195.293867c2.056533-3.3024 2.474667-7.424 0.4096-10.7264-1.646933-3.293867-5.367467-5.358933-9.079466-5.358934h-339.797334c-4.949333 0-9.079467 3.3024-9.9072 7.8336L281.924267 565.614933c-0.827733 2.884267 0 6.178133 1.646933 9.070934 2.065067 2.474667 4.949333 4.1216 7.842133 4.1216l93.192534 2.474666-4.5312 20.616534-48.6656 230.528c-0.8192 4.539733 1.237333 9.489067 5.358933 11.5456 2.065067 0.418133 3.720533 0.827733 5.367467 0.827733z" fill="#F46E52" p-id="19756"></path></svg>