<?xml version="1.0" standalone="no"?><!DOCTYPE svg PUBLIC "-//W3C//DTD SVG 1.1//EN" "http://www.w3.org/Graphics/SVG/1.1/DTD/svg11.dtd"><svg t="1701738023681" class="icon" viewBox="0 0 1024 1024" version="1.1" xmlns="http://www.w3.org/2000/svg" p-id="29115" xmlns:xlink="http://www.w3.org/1999/xlink" width="200" height="200"><path d="M128 0h768a128 128 0 0 1 128 128v768a128 128 0 0 1-128 128H128a128 128 0 0 1-128-128V128a128 128 0 0 1 128-128z m264.96 596.48v157.44h237.44V596.48H392.96z m181.12-124.8l-31.36 29.44c55.04 40.32 97.92 78.72 129.28 114.56l34.56-33.92c-35.84-36.48-80-72.96-132.48-110.08z m-58.24-232.96l-50.56 8.32c8.32 15.36 16 32 23.68 50.56H228.48v44.8h133.12c12.8 24.32 24.32 49.92 33.92 77.44H260.48v407.68h44.16V460.8h413.44v294.4c0 21.76-8.96 33.28-26.88 33.28l-62.08-1.92 11.52 42.24h65.28c37.12 0 56.32-21.12 56.32-63.36v-345.6H620.16c12.8-23.04 25.6-48.64 37.12-77.44h138.24v-44.8H538.24c-7.04-21.76-14.72-40.96-22.4-58.88z m-70.4 233.6c-35.84 40.96-80 76.16-132.48 105.6l29.44 38.4c53.76-32.64 99.2-71.04 135.68-115.2l-32.64-28.8zM448 320h128v64H448V320z m0 320h128v64H448v-64z" fill="#FF636E" p-id="29116"></path></svg>