<?xml version="1.0" standalone="no"?><!DOCTYPE svg PUBLIC "-//W3C//DTD SVG 1.1//EN" "http://www.w3.org/Graphics/SVG/1.1/DTD/svg11.dtd"><svg t="1701737533033" class="icon" viewBox="0 0 1024 1024" version="1.1" xmlns="http://www.w3.org/2000/svg" p-id="12873" xmlns:xlink="http://www.w3.org/1999/xlink" width="200" height="200"><path d="M723.3536 289.8944H270.5408v479.232h452.8128z m-26.5216 163.84h-84.6848v209.2032a53.76 53.76 0 0 1-58.2656 60.928h-79.4624l-10.24-45.056a694.8864 694.8864 0 0 0 71.68 2.6624c18.5344 0 26.5216-10.24 26.5216-31.744V461.7216a589.0048 589.0048 0 0 1-217.088 217.088l-26.5216-45.056a560.9472 560.9472 0 0 0 203.8784-180.0192H329.3184v-45.056h230.4v-83.968h47.616v84.6848h84.6848v45.056z" fill="#FF4343" p-id="12874"></path><path d="M911.0528 0H112.9472a112.64 112.64 0 0 0-112.64 112.64v798.72a112.64 112.64 0 0 0 112.64 112.64h798.1056a112.64 112.64 0 0 0 112.64-112.64V112.64a113.9712 113.9712 0 0 0-112.64-112.64z m-143.36 836.608H720.896v-30.72H274.6368v30.72h-46.1824V254.0544h541.4912V836.608z" fill="#FF4343" p-id="12875"></path></svg>