<?xml version="1.0" standalone="no"?><!DOCTYPE svg PUBLIC "-//W3C//DTD SVG 1.1//EN" "http://www.w3.org/Graphics/SVG/1.1/DTD/svg11.dtd"><svg t="1701737423264" class="icon" viewBox="0 0 1024 1024" version="1.1" xmlns="http://www.w3.org/2000/svg" p-id="5095" xmlns:xlink="http://www.w3.org/1999/xlink" width="200" height="200"><path d="M849.170732 0c97.404878 0 174.829268 77.42439 174.829268 174.829268v674.341464c0 97.404878-77.42439 174.829268-174.829268 174.829268H174.829268c-97.404878 0-174.829268-77.42439-174.829268-174.829268V174.829268c0-97.404878 77.42439-174.829268 174.829268-174.829268h674.341464z m-74.92683 524.487805H464.546341v54.946341h44.956098l-9.990244 77.424391h172.331707c-2.497561 9.990244-2.497561 14.985366-2.497561 22.478048-2.497561 19.980488-12.487805 24.97561-42.458536 27.473171l-47.453659 2.497561 19.980488 64.936585 39.960976-2.497561c64.936585-7.492683 84.917073-14.985366 89.912195-72.429268 2.497561-14.985366 9.990244-89.912195 9.990244-97.404878H574.439024l2.497561-19.980488h199.804878V524.487805zM467.043902 269.736585h-202.302439v67.434147h14.985366v297.209756c-14.985366 2.497561-24.97561 2.497561-32.468292 4.995122l7.492683 67.434146c17.482927-2.497561 74.926829-9.990244 127.375609-17.482927v77.424391h62.439025v-84.917074c14.985366-2.497561 27.473171-2.497561 34.965853-4.995122l-2.497561-32.468292-2.497561-37.463415c-7.492683 2.497561-14.985366 2.497561-29.970731 4.995122v-274.731707h19.980487v-67.434147z m-82.419512 299.707317v49.95122l-39.960975 4.995122v-54.946342h39.960975z m0-114.887804v49.951219h-37.463414v-49.951219h37.463414z m199.804878-204.8v37.463414h-104.897561v217.287805H749.268293v-217.287805h-104.897561v-34.965853l-59.941464-2.497561z m0 177.326829v24.97561h-44.956097v-24.97561h44.956097z m104.897561 0v24.97561h-44.956097v-24.97561h44.956097z m-304.702439-89.912195v52.44878h-37.463414v-52.44878h37.463414z m199.804878 7.492683v22.478048h-44.956097v-22.478048h44.956097z m104.897561 0v22.478048h-44.956097v-22.478048h44.956097z" fill="#0E7EB7" p-id="5096"></path></svg>