<?xml version="1.0" standalone="no"?><!DOCTYPE svg PUBLIC "-//W3C//DTD SVG 1.1//EN" "http://www.w3.org/Graphics/SVG/1.1/DTD/svg11.dtd"><svg t="1705234594753" class="icon" viewBox="0 0 1024 1024" version="1.1" xmlns="http://www.w3.org/2000/svg" p-id="4294" xmlns:xlink="http://www.w3.org/1999/xlink" width="200" height="200"><path d="M757.418667 141.312h-41.642667c-46.421333 0-84.138667 37.717333-84.138667 84.138667v6.314666c0 8.704-7.168 15.872-15.872 15.872H418.304c-8.704 0-15.872-7.168-15.872-15.872v-6.314666c0-46.421333-37.717333-84.138667-84.138667-84.138667h-80.725333C191.317333 141.312 153.6 179.029333 153.6 225.450667v555.178666c0 46.421333 37.717333 84.138667 84.138667 84.138667h519.850666c46.421333 0 84.138667-37.717333 84.138667-84.138667V225.450667a84.462933 84.462933 0 0 0-84.309333-84.138667z m15.872 639.317333c0 8.704-7.168 15.872-15.872 15.872H237.738667c-8.704 0-15.872-7.168-15.872-15.872V225.450667c0-8.704 7.168-15.872 15.872-15.872h80.725333c8.704 0 15.872 7.168 15.872 15.872v6.314666c0 46.421333 37.717333 84.138667 84.138667 84.138667h197.461333c46.421333 0 84.138667-37.717333 84.138667-84.138667v-6.314666c0-8.704 7.168-15.872 15.872-15.872h41.642666c8.704 0 15.872 7.168 15.872 15.872v555.178666z" fill="#112B14" p-id="4295"></path><path d="M644.608 417.28l-162.304 162.304-101.546667-101.546667c-13.312-13.312-34.986667-13.312-48.298666 0s-13.312 34.986667 0 48.298667l111.616 111.616c10.24 10.24 23.893333 15.872 38.229333 15.872s27.989333-5.632 38.229333-15.872l172.373334-172.373333c13.312-13.312 13.312-34.986667 0-48.298667s-34.986667-13.312-48.298667 0z" fill="#112B14" p-id="4296"></path></svg>